<?xml version="1.0" encoding="UTF-8" standalone="no"?>
<!-- Created with Inkscape (http://www.inkscape.org/) -->

<svg
   xmlns:dc="http://purl.org/dc/elements/1.1/"
   xmlns:cc="http://creativecommons.org/ns#"
   xmlns:rdf="http://www.w3.org/1999/02/22-rdf-syntax-ns#"
   xmlns:svg="http://www.w3.org/2000/svg"
   xmlns="http://www.w3.org/2000/svg"
   xmlns:sodipodi="http://sodipodi.sourceforge.net/DTD/sodipodi-0.dtd"
   xmlns:inkscape="http://www.inkscape.org/namespaces/inkscape"
   width="30"
   height="30"
   id="svg2"
   version="1.1"
   inkscape:version="0.48.3.1 r9886"
   sodipodi:docname="bold_active.svg">
  <defs
     id="defs4" />
  <sodipodi:namedview
     id="base"
     pagecolor="#ffffff"
     bordercolor="#666666"
     borderopacity="1.0"
     inkscape:pageopacity="0.0"
     inkscape:pageshadow="2"
     inkscape:zoom="8.5736697"
     inkscape:cx="-9.6678418"
     inkscape:cy="37.688227"
     inkscape:document-units="px"
     inkscape:current-layer="layer1"
     showgrid="false"
     inkscape:window-width="1280"
     inkscape:window-height="1000"
     inkscape:window-x="0"
     inkscape:window-y="24"
     inkscape:window-maximized="1"
     showguides="true"
     inkscape:guide-bbox="true" />
  <metadata
     id="metadata7">
    <rdf:RDF>
      <cc:Work
         rdf:about="">
        <dc:format>image/svg+xml</dc:format>
        <dc:type
           rdf:resource="http://purl.org/dc/dcmitype/StillImage" />
        <dc:title></dc:title>
      </cc:Work>
    </rdf:RDF>
  </metadata>
  <g
     inkscape:label="Capa 1"
     inkscape:groupmode="layer"
     id="layer1"
     transform="translate(0,-1022.3622)">
    <g
       transform="matrix(0.54844607,0,0,0.52816901,7.1170353,1054.1461)"
       style="font-size:40px;font-style:normal;font-variant:normal;font-weight:bold;font-stretch:normal;line-height:125%;letter-spacing:0px;word-spacing:0px;fill:#646464;fill-opacity:1;stroke:none;font-family:Ubuntu;-inkscape-font-specification:Ubuntu Bold"
       id="text3936">
      <path
         d="m 12.673272,-17.577466 c -1.520011,0 -3.0400091,-0.05333 -4.5599997,-0.16 -1.4933397,-0.08 -3.0533381,-0.293333 -4.68,-0.64 l 0,-26.88 c 1.2799956,-0.239972 2.6799942,-0.413305 4.2,-0.52 1.5199911,-0.133305 2.9333227,-0.199972 4.2399997,-0.2 1.759987,2.8e-5 3.373319,0.133362 4.84,0.4 1.493316,0.240028 2.773314,0.666694 3.84,1.28 1.066646,0.613359 1.893311,1.426692 2.48,2.44 0.61331,0.98669 0.919977,2.213355 0.92,3.68 -2.3e-5,2.213352 -1.066689,3.960017 -3.2,5.24 1.759978,0.666681 2.959977,1.573347 3.6,2.72 0.639976,1.146678 0.959975,2.44001 0.96,3.88 -2.5e-5,2.906672 -1.06669,5.093337 -3.2,6.56 -2.106686,1.466667 -5.25335,2.2 -9.44,2.2 m -3.1599997,-12.44 0,7.16 c 0.4533236,0.05334 0.9466567,0.09334 1.4799997,0.12 0.533322,0.02667 1.119988,0.04001 1.76,0.04 1.866653,5e-6 3.373318,-0.266661 4.52,-0.8 1.146649,-0.533327 1.719982,-1.519993 1.72,-2.96 -1.8e-5,-1.27999 -0.480018,-2.186656 -1.44,-2.72 -0.960016,-0.559988 -2.333348,-0.839988 -4.12,-0.84 l -3.9199997,0 m 0,-4.76 3.0399997,0 c 1.919986,1.7e-5 3.293318,-0.239983 4.12,-0.72 0.82665,-0.506648 1.239983,-1.306647 1.24,-2.4 -1.7e-5,-1.119979 -0.426684,-1.906644 -1.28,-2.36 -0.853349,-0.45331 -2.106681,-0.679977 -3.76,-0.68 -0.533345,2.3e-5 -1.106678,0.01336 -1.72,0.04 -0.613343,2.3e-5 -1.1600094,0.02669 -1.6399997,0.08 l 0,6.04"
         id="path3941"
         inkscape:connector-curvature="0"
         style="fill:#646464;fill-opacity:1" />
    </g>
  </g>
</svg>
