<?xml version="1.0" encoding="UTF-8" standalone="no"?>
<!-- Created with Inkscape (http://www.inkscape.org/) -->

<svg
   xmlns:dc="http://purl.org/dc/elements/1.1/"
   xmlns:cc="http://creativecommons.org/ns#"
   xmlns:rdf="http://www.w3.org/1999/02/22-rdf-syntax-ns#"
   xmlns:svg="http://www.w3.org/2000/svg"
   xmlns="http://www.w3.org/2000/svg"
   xmlns:sodipodi="http://sodipodi.sourceforge.net/DTD/sodipodi-0.dtd"
   xmlns:inkscape="http://www.inkscape.org/namespaces/inkscape"
   width="30"
   height="30"
   id="svg2"
   version="1.1"
   inkscape:version="0.48.4 r9939"
   sodipodi:docname="file_save_as_active.svg">
  <defs
     id="defs4" />
  <sodipodi:namedview
     id="base"
     pagecolor="#ffffff"
     bordercolor="#666666"
     borderopacity="1.0"
     inkscape:pageopacity="0.0"
     inkscape:pageshadow="2"
     inkscape:zoom="16"
     inkscape:cx="5.4077825"
     inkscape:cy="5.8612657"
     inkscape:document-units="px"
     inkscape:current-layer="layer1"
     showgrid="false"
     inkscape:window-width="1280"
     inkscape:window-height="1000"
     inkscape:window-x="0"
     inkscape:window-y="24"
     inkscape:window-maximized="1"
     showguides="true"
     inkscape:guide-bbox="true" />
  <metadata
     id="metadata7">
    <rdf:RDF>
      <cc:Work
         rdf:about="">
        <dc:format>image/svg+xml</dc:format>
        <dc:type
           rdf:resource="http://purl.org/dc/dcmitype/StillImage" />
        <dc:title></dc:title>
      </cc:Work>
    </rdf:RDF>
  </metadata>
  <g
     inkscape:label="Capa 1"
     inkscape:groupmode="layer"
     id="layer1"
     transform="translate(0,-1022.3622)">
    <path
       style="fill:#646464;fill-opacity:1;stroke:none"
       d="M 6 3 L 6 14 L 7 14 L 7 4 L 19 4 L 23 8 L 23 14 L 24 14 L 24 7.5 L 19.5 3 L 6 3 z "
       transform="translate(0,1022.3622)"
       id="rect2985" />
    <path
       style="fill:#646464;fill-opacity:1;stroke:none"
       d="m 18,1025.3622 0,6 6,0 -1,-1 -4,0 0,-4 -1,-1 z"
       id="path3758"
       inkscape:connector-curvature="0" />
    <rect
       style="fill:#646464;fill-opacity:1;stroke:none"
       id="rect4010"
       width="26"
       height="2"
       x="2"
       y="1036.3622" />
    <path
       sodipodi:type="arc"
       style="fill:#646464;fill-opacity:1;stroke:none"
       id="path4857"
       sodipodi:cx="17.9375"
       sodipodi:cy="21.5"
       sodipodi:rx="1.0625"
       sodipodi:ry="1.125"
       d="m 19,21.5 a 1.0625,1.125 0 1 1 -2.125,0 1.0625,1.125 0 1 1 2.125,0 z"
       transform="matrix(0.94117647,0,0,0.88888889,10.117647,1026.2511)" />
    <path
       transform="matrix(0.94117647,0,0,0.88888889,6.1176471,1026.2511)"
       d="m 19,21.5 a 1.0625,1.125 0 1 1 -2.125,0 1.0625,1.125 0 1 1 2.125,0 z"
       sodipodi:ry="1.125"
       sodipodi:rx="1.0625"
       sodipodi:cy="21.5"
       sodipodi:cx="17.9375"
       id="path4859"
       style="fill:#646464;fill-opacity:1;stroke:none"
       sodipodi:type="arc" />
    <path
       sodipodi:type="arc"
       style="fill:#646464;fill-opacity:1;stroke:none"
       id="path4861"
       sodipodi:cx="17.9375"
       sodipodi:cy="21.5"
       sodipodi:rx="1.0625"
       sodipodi:ry="1.125"
       d="m 19,21.5 a 1.0625,1.125 0 1 1 -2.125,0 1.0625,1.125 0 1 1 2.125,0 z"
       transform="matrix(0.94117647,0,0,0.88888889,2.1176471,1026.2511)" />
  </g>
</svg>
