<?xml version="1.0" encoding="UTF-8" standalone="no"?>
<!-- Created with Inkscape (http://www.inkscape.org/) -->

<svg
   xmlns:dc="http://purl.org/dc/elements/1.1/"
   xmlns:cc="http://creativecommons.org/ns#"
   xmlns:rdf="http://www.w3.org/1999/02/22-rdf-syntax-ns#"
   xmlns:svg="http://www.w3.org/2000/svg"
   xmlns="http://www.w3.org/2000/svg"
   xmlns:sodipodi="http://sodipodi.sourceforge.net/DTD/sodipodi-0.dtd"
   xmlns:inkscape="http://www.inkscape.org/namespaces/inkscape"
   width="30"
   height="30"
   id="svg2"
   version="1.1"
   inkscape:version="0.48.4 r9939"
   sodipodi:docname="file_close_inactive.svg">
  <defs
     id="defs4" />
  <sodipodi:namedview
     id="base"
     pagecolor="#ffffff"
     bordercolor="#666666"
     borderopacity="1.0"
     inkscape:pageopacity="0.0"
     inkscape:pageshadow="2"
     inkscape:zoom="22.627417"
     inkscape:cx="19.40989"
     inkscape:cy="15.753735"
     inkscape:document-units="px"
     inkscape:current-layer="layer1"
     showgrid="false"
     inkscape:window-width="1280"
     inkscape:window-height="1000"
     inkscape:window-x="0"
     inkscape:window-y="24"
     inkscape:window-maximized="1" />
  <metadata
     id="metadata7">
    <rdf:RDF>
      <cc:Work
         rdf:about="">
        <dc:format>image/svg+xml</dc:format>
        <dc:type
           rdf:resource="http://purl.org/dc/dcmitype/StillImage" />
        <dc:title></dc:title>
      </cc:Work>
    </rdf:RDF>
  </metadata>
  <g
     inkscape:label="Capa 1"
     inkscape:groupmode="layer"
     id="layer1"
     transform="translate(0,-1022.3622)">
    <path
       style="fill:#ff6400;fill-opacity:1;stroke:none"
       d="m 23,1030.3622 0,18 -16,0 0,-22 12,0 m 0.5,-1 -13.5,0 0,24 18,0 0,-19.5 z"
       id="rect2985"
       inkscape:connector-curvature="0"
       sodipodi:nodetypes="ccccccccccc" />
    <path
       style="fill:#ff6400;fill-opacity:1;stroke:none"
       d="m 18,1025.3622 0,6 6,0 -1,-1 -4,0 0,-4 -1,-1 z"
       id="path3758"
       inkscape:connector-curvature="0" />
    <path
       sodipodi:type="arc"
       style="fill:#ff6400;fill-opacity:1;stroke:none"
       id="path2985"
       sodipodi:cx="13.17296"
       sodipodi:cy="13.264312"
       sodipodi:rx="3.9646773"
       sodipodi:ry="2.996346"
       d="m 17.137638,13.264312 a 3.9646773,2.996346 0 1 1 -7.9293551,0 3.9646773,2.996346 0 1 1 7.9293551,0 z"
       transform="matrix(0.27292694,0,0,0.36112893,11.404744,1032.572)" />
    <rect
       style="fill:#ff6400;fill-opacity:1;stroke:none"
       id="rect7510"
       width="2.4780798"
       height="12.3904"
       x="-724.15826"
       y="737.93726"
       transform="matrix(0.70710678,-0.70710678,0.70710678,0.70710678,0,0)" />
    <rect
       style="fill:#ff6400;fill-opacity:1;stroke:none"
       id="rect7512"
       width="12.3904"
       height="2.4780798"
       x="-729.11444"
       y="742.89331"
       transform="matrix(0.70710678,-0.70710678,0.70710678,0.70710678,0,0)" />
  </g>
</svg>
