<?xml version="1.0" encoding="UTF-8" standalone="no"?>
<!-- Created with Inkscape (http://www.inkscape.org/) -->

<svg
   xmlns:dc="http://purl.org/dc/elements/1.1/"
   xmlns:cc="http://creativecommons.org/ns#"
   xmlns:rdf="http://www.w3.org/1999/02/22-rdf-syntax-ns#"
   xmlns:svg="http://www.w3.org/2000/svg"
   xmlns="http://www.w3.org/2000/svg"
   xmlns:sodipodi="http://sodipodi.sourceforge.net/DTD/sodipodi-0.dtd"
   xmlns:inkscape="http://www.inkscape.org/namespaces/inkscape"
   width="30"
   height="30"
   id="svg2"
   version="1.1"
   inkscape:version="0.48.4 r9939"
   sodipodi:docname="preview_inactive.svg">
  <defs
     id="defs4" />
  <sodipodi:namedview
     id="base"
     pagecolor="#ffffff"
     bordercolor="#666666"
     borderopacity="1.0"
     inkscape:pageopacity="0.0"
     inkscape:pageshadow="2"
     inkscape:zoom="16"
     inkscape:cx="6.6350978"
     inkscape:cy="5.8612657"
     inkscape:document-units="px"
     inkscape:current-layer="layer1"
     showgrid="false"
     inkscape:window-width="1280"
     inkscape:window-height="1000"
     inkscape:window-x="0"
     inkscape:window-y="24"
     inkscape:window-maximized="1"
     showguides="true"
     inkscape:guide-bbox="true" />
  <metadata
     id="metadata7">
    <rdf:RDF>
      <cc:Work
         rdf:about="">
        <dc:format>image/svg+xml</dc:format>
        <dc:type
           rdf:resource="http://purl.org/dc/dcmitype/StillImage" />
        <dc:title></dc:title>
      </cc:Work>
    </rdf:RDF>
  </metadata>
  <g
     inkscape:label="Capa 1"
     inkscape:groupmode="layer"
     id="layer1"
     transform="translate(0,-1022.3622)">
    <path
       style="fill:#ff6400;fill-opacity:1;stroke:none"
       d="m 7.046438,1029.4407 c -2.7285839,2.7714 -2.728584,7.2647 0,10.036 2.487786,2.5268 6.372589,2.7305 9.109117,0.6497 l 7.12408,7.2358 1.720365,-1.7474 -7.168191,-7.2805 c 1.772245,-2.7521 1.475845,-6.4761 -0.904295,-8.8936 -2.728584,-2.7713 -7.152492,-2.7713 -9.881076,0 z m 1.411582,1.4337 c 1.948989,-1.9795 5.108923,-1.9795 7.057912,0 1.948988,1.9797 1.948988,5.1891 0,7.1686 -1.948989,1.9796 -5.108923,1.9796 -7.057912,0 -1.9489882,-1.9795 -1.9489882,-5.1889 0,-7.1686 z"
       id="path5409"
       inkscape:connector-curvature="0" />
  </g>
</svg>
