<?xml version="1.0" encoding="UTF-8" standalone="no"?>
<!-- Created with Inkscape (http://www.inkscape.org/) -->

<svg
   xmlns:dc="http://purl.org/dc/elements/1.1/"
   xmlns:cc="http://creativecommons.org/ns#"
   xmlns:rdf="http://www.w3.org/1999/02/22-rdf-syntax-ns#"
   xmlns:svg="http://www.w3.org/2000/svg"
   xmlns="http://www.w3.org/2000/svg"
   xmlns:sodipodi="http://sodipodi.sourceforge.net/DTD/sodipodi-0.dtd"
   xmlns:inkscape="http://www.inkscape.org/namespaces/inkscape"
   width="30"
   height="30"
   id="svg2"
   version="1.1"
   inkscape:version="0.48.3.1 r9886"
   sodipodi:docname="t2_active.svg">
  <defs
     id="defs4" />
  <sodipodi:namedview
     id="base"
     pagecolor="#ffffff"
     bordercolor="#666666"
     borderopacity="1.0"
     inkscape:pageopacity="0.0"
     inkscape:pageshadow="2"
     inkscape:zoom="8.5736697"
     inkscape:cx="12.084804"
     inkscape:cy="29.05715"
     inkscape:document-units="px"
     inkscape:current-layer="layer1"
     showgrid="false"
     inkscape:window-width="1280"
     inkscape:window-height="1000"
     inkscape:window-x="0"
     inkscape:window-y="24"
     inkscape:window-maximized="1" />
  <metadata
     id="metadata7">
    <rdf:RDF>
      <cc:Work
         rdf:about="">
        <dc:format>image/svg+xml</dc:format>
        <dc:type
           rdf:resource="http://purl.org/dc/dcmitype/StillImage" />
        <dc:title></dc:title>
      </cc:Work>
    </rdf:RDF>
  </metadata>
  <g
     inkscape:label="Capa 1"
     inkscape:groupmode="layer"
     id="layer1"
     transform="translate(0,-1022.3622)">
    <g
       style="font-size:19.25941467000000173px;font-style:normal;font-variant:normal;font-weight:normal;font-stretch:normal;line-height:125%;letter-spacing:0px;word-spacing:0px;fill:#646464;fill-opacity:1;stroke:none;font-family:Ubuntu;-inkscape-font-specification:Ubuntu"
       id="text3842"
       transform="matrix(1,0,0,1.0985068,6.8874606,-56.96275)">
      <path
         d="m 8.3778074,989.67386 0,1.61779 -4.1985524,0 0,11.72895 -1.8681632,0 0,-11.72895 -4.1985524,0 0,-1.61779 10.265268,0"
         id="path3847"
         inkscape:connector-curvature="0"
         style="fill:#646464;fill-opacity:1" />
      <path
         d="m 17.669572,993.08277 c -9e-6,0.46224 -0.09631,0.91162 -0.288891,1.34816 -0.179763,0.42372 -0.423716,0.84742 -0.731858,1.27112 -0.308158,0.41088 -0.654827,0.82174 -1.040008,1.2326 -0.385195,0.39804 -0.770383,0.78965 -1.155565,1.17483 -0.218279,0.21828 -0.475071,0.47507 -0.770377,0.77038 -0.282476,0.29531 -0.552108,0.60346 -0.808895,0.92445 -0.256796,0.32099 -0.47507,0.62919 -0.65482,0.92449 -0.166919,0.2953 -0.250376,0.5521 -0.250373,0.7703 l 6.143753,0 0,1.5215 -8.088954,0 c -0.01284,-0.077 -0.01926,-0.154 -0.01926,-0.2311 -1e-6,-0.077 -1e-6,-0.1476 0,-0.2118 -1e-6,-0.6035 0.0963,-1.162 0.288891,-1.6756 0.205432,-0.5264 0.468644,-1.02075 0.789636,-1.48298 0.320988,-0.46222 0.680496,-0.89877 1.078527,-1.30964 0.398024,-0.41086 0.789632,-0.80889 1.174825,-1.19408 0.320985,-0.30815 0.622715,-0.60988 0.905192,-0.9052 0.295305,-0.30814 0.552097,-0.60987 0.770377,-0.90519 0.231106,-0.30814 0.41086,-0.62271 0.539263,-0.94371 0.141229,-0.32098 0.211847,-0.66123 0.211854,-1.02075 -7e-6,-0.38518 -0.06421,-0.71259 -0.192594,-0.98223 -0.115564,-0.26962 -0.276058,-0.49431 -0.481486,-0.67408 -0.20544,-0.17974 -0.449392,-0.30814 -0.731857,-0.38519 -0.269638,-0.0899 -0.558529,-0.1348 -0.866674,-0.13481 -0.372353,10e-6 -0.712602,0.0514 -1.020749,0.15407 -0.308154,0.10273 -0.584205,0.22471 -0.828155,0.36593 -0.243955,0.12841 -0.449389,0.26964 -0.616301,0.42371 -0.166917,0.14124 -0.295313,0.25038 -0.385188,0.32741 l -0.8859335,-1.27112 c 0.1155553,-0.12839 0.2888895,-0.28246 0.5200045,-0.46223 0.231111,-0.19258 0.507162,-0.37234 0.828155,-0.53926 0.320987,-0.1669 0.680496,-0.30814 1.078527,-0.42371 0.398024,-0.11554 0.82815,-0.17332 1.290381,-0.17334 1.399511,2e-5 2.445938,0.32743 3.139284,0.98224 0.70617,0.64199 1.059259,1.5536 1.059268,2.73483"
         id="path3849"
         inkscape:connector-curvature="0"
         style="fill:#646464;fill-opacity:1" />
    </g>
  </g>
</svg>
