<?xml version="1.0" encoding="UTF-8" standalone="no"?>
<!-- Created with Inkscape (http://www.inkscape.org/) -->

<svg
   xmlns:dc="http://purl.org/dc/elements/1.1/"
   xmlns:cc="http://creativecommons.org/ns#"
   xmlns:rdf="http://www.w3.org/1999/02/22-rdf-syntax-ns#"
   xmlns:svg="http://www.w3.org/2000/svg"
   xmlns="http://www.w3.org/2000/svg"
   xmlns:sodipodi="http://sodipodi.sourceforge.net/DTD/sodipodi-0.dtd"
   xmlns:inkscape="http://www.inkscape.org/namespaces/inkscape"
   width="30"
   height="30"
   id="svg2"
   version="1.1"
   inkscape:version="0.48.3.1 r9886"
   sodipodi:docname="t2_inactive.svg">
  <defs
     id="defs4" />
  <sodipodi:namedview
     id="base"
     pagecolor="#ffffff"
     bordercolor="#666666"
     borderopacity="1.0"
     inkscape:pageopacity="0.0"
     inkscape:pageshadow="2"
     inkscape:zoom="8.5736697"
     inkscape:cx="12.084804"
     inkscape:cy="37.688227"
     inkscape:document-units="px"
     inkscape:current-layer="layer1"
     showgrid="false"
     inkscape:window-width="1280"
     inkscape:window-height="1000"
     inkscape:window-x="0"
     inkscape:window-y="24"
     inkscape:window-maximized="1" />
  <metadata
     id="metadata7">
    <rdf:RDF>
      <cc:Work
         rdf:about="">
        <dc:format>image/svg+xml</dc:format>
        <dc:type
           rdf:resource="http://purl.org/dc/dcmitype/StillImage" />
        <dc:title></dc:title>
      </cc:Work>
    </rdf:RDF>
  </metadata>
  <g
     inkscape:label="Capa 1"
     inkscape:groupmode="layer"
     id="layer1"
     transform="translate(0,-1022.3622)">
    <g
       transform="matrix(0.48194949,0,0,0.5179558,7.5021895,1055.2317)"
       style="font-size:40px;font-style:normal;font-variant:normal;font-weight:normal;font-stretch:normal;line-height:125%;letter-spacing:0px;word-spacing:0px;fill:#ff6400;fill-opacity:1;stroke:none;font-family:Ubuntu;-inkscape-font-specification:Ubuntu"
       id="text3889">
      <path
         d="m 16.128191,-48.340098 0,3.36 -8.7199996,0 0,24.36 -3.88,0 0,-24.36 -8.72,0 0,-3.36 21.3199996,0"
         id="path3894"
         inkscape:connector-curvature="0"
         style="fill:#ff6400;fill-opacity:1" />
      <path
         d="m 25.786316,-23.340098 c 2.373322,3e-6 4.066654,-0.466664 5.08,-1.4 1.039985,-0.933328 1.559985,-2.18666 1.56,-3.76 -1.5e-5,-1.013325 -0.213348,-1.866657 -0.64,-2.56 -0.426681,-0.693322 -0.98668,-1.239988 -1.68,-1.64 -0.693346,-0.426654 -1.506678,-0.719987 -2.44,-0.88 -0.906676,-0.186654 -1.840009,-0.279987 -2.8,-0.28 l -0.96,0 0,-3.04 1.32,0 c 0.666658,1.6e-5 1.346657,-0.06665 2.04,-0.2 0.719989,-0.133317 1.373322,-0.373317 1.96,-0.72 0.586654,-0.346649 1.066654,-0.813315 1.44,-1.4 0.373319,-0.613314 0.559986,-1.373313 0.56,-2.28 -1.4e-5,-0.746645 -0.133347,-1.386645 -0.4,-1.92 -0.26668,-0.53331 -0.62668,-0.97331 -1.08,-1.32 -0.426679,-0.346642 -0.933345,-0.586642 -1.52,-0.72 -0.56001,-0.159975 -1.16001,-0.239975 -1.8,-0.24 -1.280008,2.5e-5 -2.37334,0.186691 -3.28,0.56 -0.880005,0.373357 -1.626671,0.760024 -2.24,1.16 l -1.44,-2.84 c 0.319997,-0.213307 0.719997,-0.439973 1.2,-0.68 0.506663,-0.26664 1.066662,-0.506639 1.68,-0.72 0.613328,-0.213306 1.26666,-0.386639 1.96,-0.52 0.719992,-0.159972 1.466658,-0.239972 2.24,-0.24 1.466656,2.8e-5 2.733321,0.186695 3.8,0.56 1.066652,0.346694 1.946652,0.85336 2.64,1.52 0.693317,0.640026 1.213316,1.413358 1.56,2.32 0.346649,0.880023 0.519982,1.840022 0.52,2.88 -1.8e-5,1.44002 -0.413351,2.680018 -1.24,3.72 -0.826682,1.01335 -1.826681,1.786682 -3,2.32 0.719986,0.213348 1.413318,0.520014 2.08,0.92 0.66665,0.400014 1.239983,0.90668 1.72,1.52 0.506649,0.613345 0.906648,1.320011 1.2,2.12 0.319981,0.80001 0.479981,1.693342 0.48,2.68 -1.9e-5,1.200006 -0.213352,2.320005 -0.64,3.36 -0.400018,1.013337 -1.040017,1.893336 -1.92,2.64 -0.853349,0.746668 -1.933348,1.333334 -3.24,1.76 -1.306679,0.426666 -2.853344,0.639999 -4.64,0.64 -0.693341,-10e-7 -1.413341,-0.05333 -2.16,-0.16 -0.720006,-0.106667 -1.400005,-0.24 -2.04,-0.4 -0.640004,-0.16 -1.200003,-0.32 -1.68,-0.48 -0.480002,-0.16 -0.826669,-0.293333 -1.04,-0.4 l 0.72,-3.24 c 0.45333,0.213337 1.199996,0.493337 2.24,0.84 1.066661,0.346669 2.359993,0.520003 3.88,0.52"
         id="path3896"
         inkscape:connector-curvature="0"
         style="fill:#ff6400;fill-opacity:1" />
    </g>
  </g>
</svg>
