<?xml version="1.0" encoding="UTF-8" standalone="no"?>
<!-- Created with Inkscape (http://www.inkscape.org/) -->

<svg
   xmlns:dc="http://purl.org/dc/elements/1.1/"
   xmlns:cc="http://creativecommons.org/ns#"
   xmlns:rdf="http://www.w3.org/1999/02/22-rdf-syntax-ns#"
   xmlns:svg="http://www.w3.org/2000/svg"
   xmlns="http://www.w3.org/2000/svg"
   xmlns:sodipodi="http://sodipodi.sourceforge.net/DTD/sodipodi-0.dtd"
   xmlns:inkscape="http://www.inkscape.org/namespaces/inkscape"
   width="48"
   height="48"
   id="svg2"
   version="1.1"
   inkscape:version="0.48.4 r9939"
   sodipodi:docname="file_active.svg">
  <defs
     id="defs4" />
  <sodipodi:namedview
     id="base"
     pagecolor="#ffffff"
     bordercolor="#666666"
     borderopacity="1.0"
     inkscape:pageopacity="0.0"
     inkscape:pageshadow="2"
     inkscape:zoom="11.313709"
     inkscape:cx="13.149193"
     inkscape:cy="20.288671"
     inkscape:document-units="px"
     inkscape:current-layer="layer1"
     showgrid="false"
     inkscape:window-width="1280"
     inkscape:window-height="1000"
     inkscape:window-x="0"
     inkscape:window-y="24"
     inkscape:window-maximized="1" />
  <metadata
     id="metadata7">
    <rdf:RDF>
      <cc:Work
         rdf:about="">
        <dc:format>image/svg+xml</dc:format>
        <dc:type
           rdf:resource="http://purl.org/dc/dcmitype/StillImage" />
        <dc:title></dc:title>
      </cc:Work>
    </rdf:RDF>
  </metadata>
  <g
     inkscape:label="Capa 1"
     inkscape:groupmode="layer"
     id="layer1"
     transform="translate(0,-1004.3622)">
    <path
       sodipodi:nodetypes="cccccc"
       inkscape:connector-curvature="0"
       id="path4367"
       d="m 28.328,1007.8902 -23.328,0 0,41.472 31.104,0 0,-33.696 z"
       style="fill:#e6e6e6;fill-opacity:1;stroke:none" />
    <g
       id="g3768"
       transform="matrix(1.728,0,0,1.728,5,-769.11968)"
       style="fill:#505050;fill-opacity:1">
      <path
         sodipodi:nodetypes="ccccccccccc"
         inkscape:connector-curvature="0"
         id="rect2985"
         transform="translate(0,1022.3622)"
         d="M 17,11 17,29 1,29 1,7 13,7 M 13.5,6 0,6 0,30 18,30 18,10.5 z"
         style="fill:#505050;fill-opacity:1;stroke:none" />
      <path
         inkscape:connector-curvature="0"
         id="path3758"
         d="m 12,1028.3622 0,6 6,0 -1,-1 -4,0 0,-4 -1,-1 z"
         style="fill:#505050;fill-opacity:1;stroke:none" />
    </g>
    <path
       style="fill:none;stroke:#505050;stroke-width:1px;stroke-linecap:butt;stroke-linejoin:miter;stroke-opacity:1"
       d="m 9,1015.8622 13,0"
       id="path3837"
       inkscape:connector-curvature="0"
       sodipodi:nodetypes="cc" />
    <path
       sodipodi:nodetypes="cc"
       inkscape:connector-curvature="0"
       id="path4347"
       d="m 9,1018.8622 13,0"
       style="fill:none;stroke:#505050;stroke-width:1px;stroke-linecap:butt;stroke-linejoin:miter;stroke-opacity:1" />
    <path
       style="fill:none;stroke:#505050;stroke-width:1.30972254px;stroke-linecap:butt;stroke-linejoin:miter;stroke-opacity:1"
       d="m 9.154861,1022.0171 22.690278,0"
       id="path4349"
       inkscape:connector-curvature="0"
       sodipodi:nodetypes="cc" />
    <path
       sodipodi:nodetypes="cc"
       inkscape:connector-curvature="0"
       id="path4351"
       d="m 9.154861,1024.9655 22.690278,0"
       style="fill:none;stroke:#505050;stroke-width:1.30972254px;stroke-linecap:butt;stroke-linejoin:miter;stroke-opacity:1" />
    <path
       style="fill:none;stroke:#505050;stroke-width:1.30972254px;stroke-linecap:butt;stroke-linejoin:miter;stroke-opacity:1"
       d="m 9.154861,1027.9138 22.690278,0"
       id="path4353"
       inkscape:connector-curvature="0"
       sodipodi:nodetypes="cc" />
    <path
       sodipodi:nodetypes="cc"
       inkscape:connector-curvature="0"
       id="path4355"
       d="m 9.154861,1030.8622 22.690278,0"
       style="fill:none;stroke:#505050;stroke-width:1.30972254px;stroke-linecap:butt;stroke-linejoin:miter;stroke-opacity:1" />
    <path
       style="fill:none;stroke:#505050;stroke-width:1.30972254px;stroke-linecap:butt;stroke-linejoin:miter;stroke-opacity:1"
       d="m 9.154861,1033.8106 22.690278,0"
       id="path4357"
       inkscape:connector-curvature="0"
       sodipodi:nodetypes="cc" />
    <path
       sodipodi:nodetypes="cc"
       inkscape:connector-curvature="0"
       id="path4359"
       d="m 9.154861,1036.7589 22.690278,0"
       style="fill:none;stroke:#505050;stroke-width:1.30972254px;stroke-linecap:butt;stroke-linejoin:miter;stroke-opacity:1" />
    <path
       style="fill:none;stroke:#505050;stroke-width:1.30972254px;stroke-linecap:butt;stroke-linejoin:miter;stroke-opacity:1"
       d="m 9.154861,1039.7073 22.690278,0"
       id="path4361"
       inkscape:connector-curvature="0"
       sodipodi:nodetypes="cc" />
    <path
       sodipodi:nodetypes="cc"
       inkscape:connector-curvature="0"
       id="path4363"
       d="m 9,1042.8622 13,0"
       style="fill:none;stroke:#505050;stroke-width:1px;stroke-linecap:butt;stroke-linejoin:miter;stroke-opacity:1" />
    <path
       style="fill:#ff6400;fill-opacity:1;stroke:none"
       d="m 26.658573,1037.7993 c 0.679193,0.6793 1.576605,1.1431 2.099262,0.7292 8.371297,-6.6292 6.755397,-5.2658 14.142118,-14.1422 0.852914,-1.0248 -1.785917,-3.6596 -2.828413,-2.8285 -0.363981,0.2905 -0.487809,0.379 -0.817597,0.6409 l -1.060717,-1.0165 -6.430155,5.1045 0.596575,0.685 5.944109,-4.7952 0.44192,0.442 c -7.069005,5.5953 -6.335452,4.7981 -12.816305,13.0815 -0.410653,0.5253 0.05001,1.42 0.729202,2.0993 z"
       id="rect2996"
       inkscape:connector-curvature="0" />
    <path
       style="fill:#ff6400;fill-opacity:1;stroke:none"
       inkscape:transform-center-x="0.55579696"
       inkscape:transform-center-y="0.84475726"
       d="m 21.288977,1043.1689 c 0,0 1.031636,-4.8458 2.828464,-5.6569 1.215307,-0.5486 3.462618,1.6556 2.828414,2.8284 -0.937504,1.7337 -5.656878,2.8285 -5.656878,2.8285 z"
       id="path2999"
       inkscape:connector-curvature="0"
       sodipodi:nodetypes="cssc" />
  </g>
</svg>
