<?xml version="1.0" encoding="UTF-8" standalone="no"?>
<!-- Created with Inkscape (http://www.inkscape.org/) -->

<svg
   xmlns:dc="http://purl.org/dc/elements/1.1/"
   xmlns:cc="http://creativecommons.org/ns#"
   xmlns:rdf="http://www.w3.org/1999/02/22-rdf-syntax-ns#"
   xmlns:svg="http://www.w3.org/2000/svg"
   xmlns="http://www.w3.org/2000/svg"
   xmlns:sodipodi="http://sodipodi.sourceforge.net/DTD/sodipodi-0.dtd"
   xmlns:inkscape="http://www.inkscape.org/namespaces/inkscape"
   id="svg7384"
   height="17.066668"
   width="17.066668"
   version="1.1"
   inkscape:version="0.92.1 r15371"
   sodipodi:docname="utext-pdf.svg">
  <defs
     id="defs12" />
  <sodipodi:namedview
     pagecolor="#ffffff"
     bordercolor="#666666"
     borderopacity="1"
     objecttolerance="10"
     gridtolerance="10"
     guidetolerance="10"
     inkscape:pageopacity="0"
     inkscape:pageshadow="2"
     inkscape:window-width="1920"
     inkscape:window-height="1019"
     id="namedview10"
     showgrid="false"
     inkscape:zoom="29.5"
     inkscape:cx="20.468354"
     inkscape:cy="9.5437487"
     inkscape:window-x="0"
     inkscape:window-y="27"
     inkscape:window-maximized="1"
     inkscape:current-layer="svg7384" />
  <metadata
     id="metadata90">
    <rdf:RDF>
      <cc:Work
         rdf:about="">
        <dc:format>image/svg+xml</dc:format>
        <dc:type
           rdf:resource="http://purl.org/dc/dcmitype/StillImage" />
        <dc:title>Gnome Symbolic Icon Theme</dc:title>
      </cc:Work>
    </rdf:RDF>
  </metadata>
  <title
     id="title9167">Gnome Symbolic Icon Theme</title>
  <path
     inkscape:connector-curvature="0"
     id="path4496"
     style="font-style:normal;font-variant:normal;font-weight:normal;font-stretch:normal;font-size:medium;line-height:1.25;font-family:FontAwesome;-inkscape-font-specification:FontAwesome;letter-spacing:0px;word-spacing:0px;fill:#000000;fill-opacity:1;stroke:none;stroke-width:0.24601263"
     d="m 10.374964,9.2218062 c 0.322052,0.2539063 0.731939,0.5273442 1.229656,0.8203128 0.575793,-0.068359 1.146706,-0.1025395 1.712736,-0.1025395 1.4346,0 2.298287,0.2392575 2.591064,0.7177745 0.156149,0.214843 0.165899,0.468749 0.02928,0.761718 0,0.0099 -0.0049,0.01953 -0.01465,0.02929 -0.0097,0.0099 -0.01946,0.01953 -0.02928,0.02929 v 0.01466 c -0.05855,0.371096 -0.405009,0.556643 -1.039353,0.556643 -0.468439,0 -1.029594,-0.09765 -1.683458,-0.292969 -0.653865,-0.195324 -1.288213,-0.454103 -1.90304,-0.776368 -2.1567797,0.234375 -4.0695789,0.639648 -5.7383989,1.215822 -1.4931528,2.558595 -2.6740139,3.837892 -3.54258,3.837892 -0.1463793,0 -0.2830187,-0.03417 -0.4098859,-0.102525 l -0.351332,-0.175788 c -0.00981,-0.0099 -0.039048,-0.03419 -0.087834,-0.07323 -0.097585,-0.09765 -0.1268569,-0.273431 -0.087834,-0.527344 0.087834,-0.390625 0.3610928,-0.83496 0.8197718,-1.333008 0.4586802,-0.507815 1.102786,-0.981446 1.9323186,-1.4209 0.1366278,-0.08789 0.248858,-0.05861 0.3366915,0.08789 0.019455,0.01947 0.029275,0.03904 0.029275,0.05859 C 4.6755833,11.716938 5.1976994,10.755023 5.7344524,9.6612723 6.3980785,8.3331461 6.9055552,7.053848 7.256885,5.8233783 7.0226652,5.0225965 6.8713979,4.2462286 6.8030845,3.4942749 6.7445251,2.7325553 6.7786914,2.1075548 6.9055494,1.619273 7.0129067,1.2286479 7.2178422,1.0333353 7.5203777,1.0333353 h 0.3074141 0.014643 c 0.2244628,0 0.3952478,0.073242 0.5123577,0.2197267 0.1756707,0.2050782 0.2195818,0.5371098 0.1317528,0.9960946 -0.019455,0.058592 -0.039048,0.097654 -0.05856,0.1171868 0.00981,0.029297 0.014643,0.068359 0.014643,0.1171867 v 0.4394535 c -0.019454,1.2011728 -0.087833,2.1386737 -0.2049417,2.8125023 0.536753,1.601564 1.2491733,2.7636745 2.1372584,3.4863313 z M 1.943033,15.242317 C 2.4505108,15.007941 3.1190155,14.236459 3.9485456,12.927864 3.4508261,13.318488 3.0214233,13.728646 2.6603329,14.158335 2.3090032,14.588021 2.0699036,14.949348 1.943033,15.242317 Z M 7.7692646,1.765745 C 7.6228864,2.1759016 7.6131142,2.8204334 7.73999,3.6993404 7.7498,3.6309811 7.783907,3.416137 7.8424539,3.0548086 c 0,-0.029297 0.034143,-0.2392575 0.1024639,-0.6298833 0.00981,-0.039061 0.029297,-0.078124 0.058571,-0.1171867 -0.00981,-0.00978 -0.014643,-0.019534 -0.014643,-0.029297 -0.00981,-0.019534 -0.014643,-0.034181 -0.014643,-0.043945 -0.00981,-0.2148434 -0.073189,-0.3906252 -0.1902944,-0.5273441 0,0.00978 -0.00484,0.019534 -0.014643,0.029297 z m -1.8152074,9.682626 c 1.3174902,-0.527346 2.7032925,-0.922853 4.1574108,-1.186525 -0.01946,-0.0099 -0.08295,-0.05371 -0.190296,-0.131836 C 9.813814,10.042118 9.73575,9.9737587 9.686952,9.9249314 8.9452552,9.2706342 8.3255483,8.4112583 7.8278288,7.3468042 7.5643302,8.186649 7.1593242,9.1485636 6.6128104,10.232549 6.3200333,10.779423 6.1004526,11.184697 5.9540665,11.448371 Z m 9.4566448,-0.234375 c -0.234221,-0.234378 -0.917363,-0.351564 -2.049428,-0.351564 0.741696,0.273437 1.346766,0.410157 1.815207,0.410157 0.136629,0 0.224464,-0.0048 0.263499,-0.01466 0,-0.0099 -0.0098,-0.02442 -0.02928,-0.04395 z"
     sodipodi:nodetypes="ccscccccscccsccccccccccccscscccsccccccccccccccccccaccccccaccsccc" />
</svg>
