<?xml version="1.0" encoding="UTF-8" standalone="no"?>
<!-- Created with Inkscape (http://www.inkscape.org/) -->

<svg
   xmlns:dc="http://purl.org/dc/elements/1.1/"
   xmlns:cc="http://creativecommons.org/ns#"
   xmlns:rdf="http://www.w3.org/1999/02/22-rdf-syntax-ns#"
   xmlns:svg="http://www.w3.org/2000/svg"
   xmlns="http://www.w3.org/2000/svg"
   xmlns:sodipodi="http://sodipodi.sourceforge.net/DTD/sodipodi-0.dtd"
   xmlns:inkscape="http://www.inkscape.org/namespaces/inkscape"
   id="svg7384"
   height="16"
   width="16"
   version="1.1"
   sodipodi:docname="utext-blockquote.svg"
   inkscape:version="0.92.1 r15371">
  <defs
     id="defs10" />
  <sodipodi:namedview
     pagecolor="#ffffff"
     bordercolor="#666666"
     borderopacity="1"
     objecttolerance="10"
     gridtolerance="10"
     guidetolerance="10"
     inkscape:pageopacity="0"
     inkscape:pageshadow="2"
     inkscape:window-width="1712"
     inkscape:window-height="920"
     id="namedview8"
     showgrid="false"
     inkscape:zoom="10.429825"
     inkscape:cx="-8.5182365"
     inkscape:cy="12.629031"
     inkscape:window-x="0"
     inkscape:window-y="27"
     inkscape:window-maximized="0"
     inkscape:current-layer="svg7384" />
  <metadata
     id="metadata90">
    <rdf:RDF>
      <cc:Work
         rdf:about="">
        <dc:format>image/svg+xml</dc:format>
        <dc:type
           rdf:resource="http://purl.org/dc/dcmitype/StillImage" />
        <dc:title>Gnome Symbolic Icon Theme</dc:title>
      </cc:Work>
    </rdf:RDF>
  </metadata>
  <title
     id="title9167">Gnome Symbolic Icon Theme</title>
  <path
     inkscape:connector-curvature="0"
     id="path4542"
     style="font-style:normal;font-variant:normal;font-weight:normal;font-stretch:normal;font-size:6.13333321px;line-height:1.25;font-family:FontAwesome;-inkscape-font-specification:FontAwesome;letter-spacing:0px;word-spacing:0px;fill:#000000;fill-opacity:1;stroke:none;stroke-width:1.43999994"
     d="m 7.6845713,8.6308573 v 1.8925717 q 0,0.394285 -0.276,0.670285 -0.276,0.276 -0.6702857,0.276 H 4.8457142 q -0.3942856,0 -0.6702858,-0.276 -0.276,-0.276 -0.276,-0.670285 V 7.0537146 q 0,-0.5125714 0.1971429,-0.9758572 Q 4.2986428,5.6096431 4.6387142,5.2695717 4.9787856,4.9295003 5.4420713,4.7323574 5.9102856,4.5302859 6.4228571,4.5302859 h 0.3154285 q 0.1281428,0 0.2217856,0.093643 0.093643,0.093643 0.093643,0.2217859 v 0.630857 q 0,0.1281428 -0.093643,0.2217856 -0.093643,0.093643 -0.2217856,0.093643 H 6.4228571 q -0.5224287,0 -0.8920715,0.3696428 Q 5.1611428,6.5312861 5.1611428,7.0537148 V 7.211429 q 0,0.1971429 0.1379994,0.3351429 0.1379996,0.1379996 0.335143,0.1379996 h 1.104 q 0.3942857,0 0.6702857,0.276 0.2759999,0.2759998 0.2760004,0.6702858 z m 4.4159997,0 v 1.8925717 q 0,0.394285 -0.276,0.670285 -0.276,0.276 -0.670285,0.276 H 9.261714 q -0.3942856,0 -0.6702856,-0.276 -0.276,-0.276 -0.276,-0.670285 V 7.0537146 q 0,-0.5125714 0.1971429,-0.9758572 Q 8.7146427,5.6096431 9.054714,5.2695717 9.3947852,4.9295003 9.8580712,4.7323574 10.326286,4.5302859 10.838857,4.5302859 h 0.315429 q 0.128144,0 0.221785,0.093643 0.09365,0.093643 0.09365,0.2217859 v 0.630857 q 0,0.1281428 -0.09365,0.2217856 -0.09365,0.093643 -0.221785,0.093643 h -0.315429 q -0.522429,0 -0.8920714,0.3696428 -0.3696432,0.3696423 -0.3696432,0.892071 v 0.1577142 q 0,0.1971428 0.138,0.3351428 0.1379992,0.1379996 0.3351436,0.1379996 h 1.104 q 0.394285,0 0.670285,0.2760001 0.276,0.2759999 0.276,0.6702864 z" />
</svg>
