<?xml version="1.0" encoding="UTF-8" standalone="no"?>
<!-- Created with Inkscape (http://www.inkscape.org/) -->

<svg
   xmlns:dc="http://purl.org/dc/elements/1.1/"
   xmlns:cc="http://creativecommons.org/ns#"
   xmlns:rdf="http://www.w3.org/1999/02/22-rdf-syntax-ns#"
   xmlns:svg="http://www.w3.org/2000/svg"
   xmlns="http://www.w3.org/2000/svg"
   xmlns:sodipodi="http://sodipodi.sourceforge.net/DTD/sodipodi-0.dtd"
   xmlns:inkscape="http://www.inkscape.org/namespaces/inkscape"
   id="svg7384"
   height="17.066668"
   width="17.066668"
   version="1.1"
   inkscape:version="0.92.1 r15371"
   sodipodi:docname="utext-full.svg">
  <defs
     id="defs12" />
  <sodipodi:namedview
     pagecolor="#ffffff"
     bordercolor="#666666"
     borderopacity="1"
     objecttolerance="10"
     gridtolerance="10"
     guidetolerance="10"
     inkscape:pageopacity="0"
     inkscape:pageshadow="2"
     inkscape:window-width="1920"
     inkscape:window-height="1019"
     id="namedview10"
     showgrid="false"
     inkscape:zoom="7.375"
     inkscape:cx="48.652293"
     inkscape:cy="15.567937"
     inkscape:window-x="0"
     inkscape:window-y="27"
     inkscape:window-maximized="1"
     inkscape:current-layer="svg7384" />
  <metadata
     id="metadata90">
    <rdf:RDF>
      <cc:Work
         rdf:about="">
        <dc:format>image/svg+xml</dc:format>
        <dc:type
           rdf:resource="http://purl.org/dc/dcmitype/StillImage" />
        <dc:title>Gnome Symbolic Icon Theme</dc:title>
      </cc:Work>
    </rdf:RDF>
  </metadata>
  <title
     id="title9167">Gnome Symbolic Icon Theme</title>
  <path
     inkscape:connector-curvature="0"
     id="path4569"
     style="font-style:normal;font-variant:normal;font-weight:normal;font-stretch:normal;font-size:medium;line-height:1.25;font-family:FontAwesome;-inkscape-font-specification:FontAwesome;letter-spacing:0px;word-spacing:0px;fill:#000000;fill-opacity:1;stroke:none;stroke-width:0.16406074"
     d="m 13.562577,5.0665739 -3.46676,3.4667599 3.46676,3.4667602 1.406235,-1.406235 q 0.2832,-0.302731 0.683586,-0.136718 0.380856,0.166014 0.380856,0.576166 v 4.374953 q 0,0.253904 -0.185545,0.439449 -0.185545,0.185545 -0.439449,0.185545 h -4.374953 q -0.410152,0 -0.576166,-0.390621 -0.166013,-0.380855 0.136718,-0.673821 l 1.406235,-1.406235 -3.4667602,-3.46676 -3.4667599,3.46676 1.406235,1.406235 q 0.3027312,0.292966 0.1367173,0.673821 -0.1660138,0.390621 -0.5761657,0.390621 H 1.6584072 q -0.2539035,0 -0.4394484,-0.185545 Q 1.0334139,15.662164 1.0334139,15.40826 v -4.374953 q 0,-0.410152 0.3906208,-0.576166 0.3808553,-0.166013 0.6738209,0.136718 l 1.406235,1.406235 3.4667599,-3.4667602 -3.4667599,-3.4667599 -1.406235,1.406235 q -0.1855449,0.1855449 -0.4394484,0.1855449 -0.1171862,0 -0.2343725,-0.048828 Q 1.0334139,6.4435124 1.0334139,6.0333605 V 1.6584072 q 0,-0.2539035 0.1855449,-0.4394484 0.1855449,-0.1855449 0.4394484,-0.1855449 h 4.3749533 q 0.4101519,0 0.5761657,0.3906208 Q 6.7755401,1.80489 6.4728089,2.0978556 L 5.0665739,3.5040906 8.5333338,6.9708505 12.000094,3.5040906 10.593859,2.0978556 Q 10.291128,1.80489 10.457141,1.4240347 10.623155,1.0334139 11.033307,1.0334139 h 4.374953 q 0.253904,0 0.439449,0.1855449 0.185545,0.1855449 0.185545,0.4394484 v 4.3749533 q 0,0.4101519 -0.380856,0.5761657 -0.126951,0.048828 -0.244138,0.048828 -0.253903,0 -0.439448,-0.1855449 z" />
</svg>
