<?xml version="1.0" encoding="UTF-8" standalone="no"?>
<!-- Created with Inkscape (http://www.inkscape.org/) -->

<svg
   xmlns:dc="http://purl.org/dc/elements/1.1/"
   xmlns:cc="http://creativecommons.org/ns#"
   xmlns:rdf="http://www.w3.org/1999/02/22-rdf-syntax-ns#"
   xmlns:svg="http://www.w3.org/2000/svg"
   xmlns="http://www.w3.org/2000/svg"
   xmlns:sodipodi="http://sodipodi.sourceforge.net/DTD/sodipodi-0.dtd"
   xmlns:inkscape="http://www.inkscape.org/namespaces/inkscape"
   id="svg7384"
   height="17.066668"
   width="17.066668"
   version="1.1"
   inkscape:version="0.92.1 r15371"
   sodipodi:docname="utext-code.svg">
  <defs
     id="defs12" />
  <sodipodi:namedview
     pagecolor="#ffffff"
     bordercolor="#666666"
     borderopacity="1"
     objecttolerance="10"
     gridtolerance="10"
     guidetolerance="10"
     inkscape:pageopacity="0"
     inkscape:pageshadow="2"
     inkscape:window-width="1650"
     inkscape:window-height="953"
     id="namedview10"
     showgrid="false"
     inkscape:zoom="14.75"
     inkscape:cx="1.8590339"
     inkscape:cy="15.192298"
     inkscape:window-x="57"
     inkscape:window-y="93"
     inkscape:window-maximized="0"
     inkscape:current-layer="svg7384" />
  <metadata
     id="metadata90">
    <rdf:RDF>
      <cc:Work
         rdf:about="">
        <dc:format>image/svg+xml</dc:format>
        <dc:type
           rdf:resource="http://purl.org/dc/dcmitype/StillImage" />
        <dc:title>Gnome Symbolic Icon Theme</dc:title>
      </cc:Work>
    </rdf:RDF>
  </metadata>
  <title
     id="title9167">Gnome Symbolic Icon Theme</title>
  <path
     inkscape:connector-curvature="0"
     d="M 7.0010347,2.5460248 A 1.0667733,0.99718209 0 0 0 6.367701,2.8264542 L 1.0343677,7.8118662 0.30103435,8.5285193 1.0343677,9.2451723 6.367701,14.230584 A 1.0842667,1.0135343 0 1 0 7.9010347,12.797278 L 3.3250343,8.5297656 7.891648,4.2610564 a 1.0667733,0.99718209 0 0 0 -0.896,-1.7149818 z"
     style="color:#000000;text-indent:0;text-transform:none;fill:#000000;stroke-width:1.03128791"
     id="path8485" />
  <path
     id="path4144"
     style="color:#000000;text-indent:0;text-transform:none;fill:#000000;stroke-width:1.03128791"
     d="m 10.065632,2.545999 a 1.0667733,0.99718209 0 0 1 0.633333,0.2804294 L 16.0323,7.8118405 16.765633,8.5284935 16.0323,9.2451465 10.698965,14.230559 A 1.0842667,1.0135343 0 1 1 9.165632,12.797254 L 13.741633,8.5297398 9.1750187,4.2610306 A 1.0667733,0.99718209 0 0 1 10.071019,2.5460488 Z"
     inkscape:connector-curvature="0" />
</svg>
