<?xml version="1.0" encoding="UTF-8" standalone="no"?>
<!-- Created with Inkscape (http://www.inkscape.org/) -->

<svg
   xmlns:dc="http://purl.org/dc/elements/1.1/"
   xmlns:cc="http://creativecommons.org/ns#"
   xmlns:rdf="http://www.w3.org/1999/02/22-rdf-syntax-ns#"
   xmlns:svg="http://www.w3.org/2000/svg"
   xmlns="http://www.w3.org/2000/svg"
   xmlns:sodipodi="http://sodipodi.sourceforge.net/DTD/sodipodi-0.dtd"
   xmlns:inkscape="http://www.inkscape.org/namespaces/inkscape"
   id="svg7384"
   height="17.066668"
   width="17.066668"
   version="1.1"
   inkscape:version="0.92.1 r15371"
   sodipodi:docname="utext-print.svg">
  <defs
     id="defs12" />
  <sodipodi:namedview
     pagecolor="#ffffff"
     bordercolor="#666666"
     borderopacity="1"
     objecttolerance="10"
     gridtolerance="10"
     guidetolerance="10"
     inkscape:pageopacity="0"
     inkscape:pageshadow="2"
     inkscape:window-width="1920"
     inkscape:window-height="1019"
     id="namedview10"
     showgrid="false"
     inkscape:zoom="14.75"
     inkscape:cx="34.929861"
     inkscape:cy="19.495038"
     inkscape:window-x="0"
     inkscape:window-y="27"
     inkscape:window-maximized="1"
     inkscape:current-layer="svg7384" />
  <metadata
     id="metadata90">
    <rdf:RDF>
      <cc:Work
         rdf:about="">
        <dc:format>image/svg+xml</dc:format>
        <dc:type
           rdf:resource="http://purl.org/dc/dcmitype/StillImage" />
        <dc:title>Gnome Symbolic Icon Theme</dc:title>
      </cc:Work>
    </rdf:RDF>
  </metadata>
  <title
     id="title9167">Gnome Symbolic Icon Theme</title>
  <path
     inkscape:connector-curvature="0"
     id="path4523"
     style="font-style:normal;font-variant:normal;font-weight:normal;font-stretch:normal;font-size:medium;line-height:1.25;font-family:FontAwesome;-inkscape-font-specification:FontAwesome;letter-spacing:0px;word-spacing:0px;fill:#000000;fill-opacity:1;stroke:none;stroke-width:0.15144065"
     d="M 4.4949187,14.302501 H 12.571753 V 11.994833 H 4.4949187 Z m 0,-5.7691677 H 12.571753 V 5.0718329 h -1.442292 q -0.360573,0 -0.612974,-0.2524005 -0.252401,-0.2524016 -0.252401,-0.612974 V 2.7641664 H 4.4949187 Z M 14.708147,9.5158947 q 0.171272,-0.1712712 0.171272,-0.405644 0,-0.2343727 -0.171272,-0.4056451 -0.171271,-0.1712723 -0.405644,-0.1712723 -0.234373,0 -0.405644,0.1712723 -0.171272,0.1712724 -0.171272,0.4056451 0,0.2343728 0.171272,0.405644 0.171271,0.1712724 0.405644,0.1712724 0.234373,0 0.405644,-0.1712724 z m 1.325106,-0.405644 v 3.7499583 q 0,0.117186 -0.09015,0.207329 -0.08113,0.08113 -0.198314,0.08113 H 13.72558 v 1.442292 q 0,0.360572 -0.252401,0.612974 -0.252402,0.252402 -0.612974,0.252402 H 4.2064552 q -0.3605725,0 -0.6129741,-0.252402 Q 3.3410795,14.95153 3.3410795,14.590958 V 13.148666 H 1.3218712 q -0.1171859,0 -0.207329,-0.08113 -0.081128,-0.09014 -0.081128,-0.207329 V 9.1102507 q 0,-0.7121321 0.5048021,-1.2169342 0.513817,-0.513816 1.225948,-0.513816 H 3.3410806 V 2.4757082 q 0,-0.3605725 0.2524016,-0.612974 0.2524016,-0.2524006 0.612974,-0.2524006 h 6.0576258 q 0.360573,0 0.79326,0.1802863 0.432688,0.1802862 0.685089,0.4326867 l 1.370177,1.3701777 q 0.252401,0.2524005 0.432687,0.6850884 0.180287,0.4326878 0.180287,0.7932602 v 2.3076676 h 0.576917 q 0.712131,0 1.216933,0.513816 0.513817,0.5048021 0.513817,1.2169342 z" />
</svg>
